<?xml version="1.0" encoding="UTF-8"?>
<svg width="1200pt" height="1200pt" version="1.1" viewBox="0 0 1200 1200" xmlns="http://www.w3.org/2000/svg">
 <path d="m49.992 400.01 550.01-200 550.01 200v99.996l-550.01-199.99-550.01 199.99z" fill="#010101"/>
 <path d="m49.992 200 550.01-200 550.01 200v100.01l-550.01-200.02-550.01 200.02z" fill="#010101"/>
 <path d="m250 800c-110.46 0-200 89.543-200 200.02 0 110.45 89.543 199.98 200 199.98 110.45 0 200-89.531 200-199.98-0.011719-110.47-89.555-200.02-200-200.02zm0 350.03c-82.848 0-150-67.164-150-150.01 0-82.836 67.164-150 150-150 82.836 0 150 67.164 150 150 0 82.848-67.152 150.01-150 150.01z" fill="#010101"/>
 <path d="m950 800c-110.47 0-200 89.543-200 200.02 0 110.45 89.531 199.98 200 199.98 110.45 0 200-89.531 200-199.98 0-110.47-89.555-200.02-200-200.02zm0 350.03c-82.836 0-150-67.164-150-150.01 0-82.836 67.164-150 150-150 82.848 0 150.01 67.164 150.01 150 0 82.848-67.164 150.01-150.01 150.01z" fill="#010101"/>
 <path d="m971.61 1012.4c0.38281-0.68359 0.78125-1.3438 1.1406-2.0898 0.3125-0.73047 0.55078-1.5234 0.82812-2.2695 0.25391-0.74219 0.51562-1.5234 0.71875-2.293 0.16797-0.74219 0.25391-1.5 0.35938-2.2695 0.13281-0.89844 0.23828-1.7656 0.27734-2.6992 0-0.25391 0.058593-0.49219 0.058593-0.74219 0-0.49219-0.10938-0.9375-0.13281-1.4414-0.058594-0.92578-0.13281-1.8008-0.27734-2.7344-0.13281-0.78125-0.33594-1.5469-0.52734-2.3281-0.22656-0.76953-0.43359-1.5352-0.74219-2.3047-0.3125-0.85156-0.70703-1.6797-1.1172-2.4844-0.23828-0.43359-0.35938-0.875-0.60156-1.2852l-167.64-287.44 50.988-87.395c6.9609-11.93 2.9141-27.238-9.0117-34.199-5.2188-3.0352-11.062-3.8633-16.586-2.9648-1.4141-0.25391-2.8555-0.43359-4.332-0.43359h-100.02c-13.801 0-24.984 11.195-24.984 24.996s11.184 24.996 24.984 24.996h64.824l-29.184 49.992h-292.12l58.355-99.984h23.137c13.789 0 24.984-11.195 24.984-25.008 0-13.801-11.195-24.996-24.984-24.996h-125.02c-13.789 0-24.984 11.195-24.984 24.996 0 13.812 11.195 25.008 24.984 25.008h43.98l-240.57 412.42c-6.9609 11.902-2.9297 27.227 9 34.188 3.9609 2.293 8.293 3.4062 12.562 3.4062 8.5938 0 16.98-4.4414 21.613-12.406l153.41-262.98 153.42 262.98c0.16797 0.28906 0.38281 0.55078 0.57422 0.85156 0.21484 0.33594 0.43359 0.67188 0.67188 0.98438 0.16797 0.23828 0.30078 0.48047 0.49219 0.71875 0.625 0.82812 1.2852 1.5703 2.0039 2.293 0.058594 0.085938 0.15625 0.19141 0.23828 0.27734 0.21484 0.21484 0.45703 0.40625 0.69531 0.625 0.21484 0.21484 0.45703 0.38281 0.68359 0.60156 0.625 0.51562 1.2617 1.0547 1.957 1.5234 0.25391 0.20312 0.52734 0.34766 0.81641 0.53906 0.21484 0.13281 0.40625 0.25391 0.625 0.38281 0.085937 0.070312 0.17969 0.13281 0.25391 0.17969 0.046875 0.046875 0.058594 0.046875 0.10938 0.085938 0.68359 0.38281 1.3906 0.71875 2.1016 1.0312 0.085937 0.046875 0.16797 0.097656 0.25391 0.13281 0.15625 0.070313 0.32422 0.17969 0.49219 0.23828 0.046876 0.023437 0.10938 0.070312 0.17969 0.070312 0.51562 0.21484 1.0664 0.38281 1.6094 0.5625 0.49219 0.16797 0.98438 0.35938 1.5 0.49219 0.10938 0.023437 0.21484 0.035156 0.30078 0.058593 0.19141 0.046875 0.35938 0.070313 0.55078 0.10938 0.32422 0.070313 0.64844 0.13281 0.97266 0.20312 1.5 0.27734 2.9883 0.46875 4.4883 0.46875h0.023437 0.023438c0.035156 0 0.058594-0.023437 0.085938-0.023437h349.84c0.035156 0 0.058594 0.023437 0.085937 0.023437 1.5 0 2.9883-0.19141 4.4883-0.46875 0.32422-0.070312 0.64844-0.13281 0.98438-0.20312 1.4023-0.3125 2.7734-0.70703 4.1523-1.2852 0.15625-0.058594 0.30078-0.16797 0.48047-0.23828 0.82812-0.38281 1.6797-0.76953 2.4844-1.2461 0.22656-0.13281 0.38281-0.30078 0.61328-0.43359 0.76953-0.49219 1.4766-1.0312 2.207-1.5859 0.58984-0.48047 1.2109-0.94922 1.7539-1.4648 0.60156-0.5625 1.1172-1.1875 1.6562-1.8008 0.51562-0.60156 1.0781-1.2109 1.5234-1.8477 0.41797-0.66797 0.8125-1.3633 1.2227-2.0859zm-65.125-37.379h-262.96l131.47-225.37zm-306.48-24.625-131.48-225.37h262.95z" fill="#010101"/>
</svg>
